# xmcd CD database file
#
# Track frame offsets:
#	150
#	14815
#	31792
#	42942
#	63506
#	78032
#	100095
#	111418
#	129649
#	149737
#	165948
#	186248
#
# Disc length: 2662 seconds
#
# Revision: 0
# Processed by: cddbd v1.5.1PL0 Copyright (c) Steve Scherf et al.
# Submitted via: CDex 1.51
#
DISCID=a10a640c
DTITLE=André Hazes - Dit is wat ik wil
DYEAR=1900
DGENRE=Blues
TTITLE0=Ik ben een gokker
TTITLE1=I've been loving you too long
TTITLE2=Een morgen
TTITLE3=What'd i say
TTITLE4=Op de hoek van de straat
TTITLE5=The thrill is gone
TTITLE6=Heb jij dat nu ook
TTITLE7=Working in a coal mine
TTITLE8=Volgens mij ben ik getrouwd
TTITLE9=Het is nooit te laat
TTITLE10=I'm blue
TTITLE11=Jammer!
EXTD=
EXTT0=
EXTT1=
EXTT2=
EXTT3=
EXTT4=
EXTT5=
EXTT6=
EXTT7=
EXTT8=
EXTT9=
EXTT10=
EXTT11=
PLAYORDER=
